P2
2 2
255
97 91
98 94 
